<mxfile host="65bd71144e" modified="2020-11-12T00:40:37.407Z" agent="5.0 (Windows NT 10.0; Win64; x64) AppleWebKit/537.36 (KHTML, like Gecko) Code/1.51.0 Chrome/83.0.4103.122 Electron/9.3.3 Safari/537.36" etag="s-tkxjdZtwMoaiF98VW9" version="13.6.5">
    <diagram id="7IHAwfu1fPf_q0nscU0K" name="PÃ¡gina-1">
        <mxGraphModel dx="1449" dy="488" grid="1" gridSize="10" guides="1" tooltips="1" connect="1" arrows="1" fold="1" page="1" pageScale="1" pageWidth="827" pageHeight="1169" math="0" shadow="0">
            <root>
                <mxCell id="0"/>
                <mxCell id="1" parent="0"/>
                <mxCell id="2" value="" style="rounded=0;whiteSpace=wrap;html=1;" parent="1" vertex="1">
                    <mxGeometry x="-150" width="600" height="200" as="geometry"/>
                </mxCell>
                <mxCell id="4" value="Copyright" style="rounded=0;whiteSpace=wrap;html=1;" parent="1" vertex="1">
                    <mxGeometry x="-150" y="180" width="600" height="20" as="geometry"/>
                </mxCell>
                <mxCell id="8" value="LOGO" style="rounded=0;whiteSpace=wrap;html=1;fontStyle=1" vertex="1" parent="1">
                    <mxGeometry x="-150" width="200" height="180" as="geometry"/>
                </mxCell>
                <mxCell id="9" value="STOP CO2" style="rounded=0;whiteSpace=wrap;html=1;fontStyle=1" vertex="1" parent="1">
                    <mxGeometry x="50" width="200" height="180" as="geometry"/>
                </mxCell>
                <mxCell id="10" value="SOCIAL MEDIA" style="rounded=0;whiteSpace=wrap;html=1;fontStyle=1" vertex="1" parent="1">
                    <mxGeometry x="250" width="200" height="180" as="geometry"/>
                </mxCell>
            </root>
        </mxGraphModel>
    </diagram>
</mxfile>